<svg width="40" height="40" viewBox="0 0 40 40" fill="none" xmlns="http://www.w3.org/2000/svg">
<path d="M33.5493 13.9502C32.6921 13.9502 31.8782 14.1351 31.1445 14.4659C30.7859 14.6277 30.3801 14.371 30.3801 13.9776V12.2693C30.3801 9.03103 27.7549 6.40559 24.5164 6.40559C22.3533 6.40559 20.4649 7.57778 19.4486 9.32095C19.2921 9.5895 18.9451 9.66824 18.6848 9.49826C17.7644 8.89706 16.6651 8.54702 15.4835 8.54702C12.2452 8.54702 9.61979 11.1722 9.61979 14.4107V15.9619C9.61979 16.3553 9.2139 16.6122 8.85532 16.4502C8.12167 16.1194 7.30777 15.9347 6.45083 15.9347C3.21229 15.9347 0.587158 18.5599 0.587158 21.7984V23.2404C0.587158 26.4786 3.21229 29.104 6.45083 29.104H33.5493C36.7879 29.104 39.413 26.4786 39.413 23.2404V19.8138C39.413 16.5756 36.7879 13.9502 33.5493 13.9502Z" fill="#6BDAE8"/>
<path d="M33.7767 13.956C34.4053 14.8904 34.7728 16.0153 34.7728 17.2259V20.6522C34.7728 23.8907 32.1473 26.5158 28.9088 26.5158H1.8103C1.73401 26.5158 1.65863 26.5131 1.58295 26.51C2.63611 28.0747 4.42292 29.104 6.45083 29.104H33.5493C36.7879 29.104 39.413 26.4786 39.413 23.2404V19.8138C39.413 16.6519 36.9096 14.0756 33.7767 13.956Z" fill="#00C8DE"/>
<path d="M15.4954 16.1172C17.2611 16.1172 18.2285 17.2256 18.2285 17.883C18.2285 18.3151 17.9939 18.5782 17.5337 18.5782C16.6413 18.5782 16.9041 17.3572 15.4954 17.3572C14.5277 17.3572 13.7293 18.193 13.7293 19.6585C13.7293 20.889 14.2179 21.9595 15.5515 21.9595C16.7634 21.9595 16.735 20.6635 17.4772 20.6635C17.8529 20.6635 18.2285 20.8795 18.2285 21.2552C18.2285 22.2321 17.0451 23.1995 15.5515 23.1995C13.4382 23.1995 12.1888 21.9876 12.1888 19.6582C12.1888 17.7515 13.3161 16.1172 15.4954 16.1172Z" fill="black"/>
<path d="M22.3054 16.1172C24.5219 16.1172 25.7243 17.5918 25.7243 19.574C25.7243 21.4807 24.6159 23.1995 22.3054 23.1995C19.8817 23.1995 18.8862 21.6214 18.8862 19.574C18.8862 17.5918 20.0886 16.1172 22.3054 16.1172ZM22.3054 21.9595C23.7049 21.9595 24.1837 20.8701 24.1837 19.574C24.1837 18.2776 23.5639 17.3572 22.3054 17.3572C21.0465 17.3572 20.4267 18.2776 20.4267 19.574C20.4267 20.8701 20.8585 21.9595 22.3054 21.9595Z" fill="black"/>
<path d="M29.1353 24.5142C29.4938 24.5142 29.6434 24.6997 29.6434 25.0165C29.6434 25.3333 29.4938 25.5188 29.1353 25.5188H26.6963C26.3795 25.5188 26.1882 25.2796 26.1882 25.0226C26.1882 24.6518 26.2779 24.4605 27.3778 23.6954L27.9457 23.3008C28.2387 23.0975 28.3461 22.9303 28.3461 22.6849C28.3461 22.392 28.1489 22.2009 27.8261 22.2009C27.1446 22.2009 27.4974 23.0316 26.8217 23.0316C26.3914 23.0316 26.2361 22.7927 26.2361 22.4518C26.2361 21.8781 26.7979 21.2683 27.8621 21.2683C29.1353 21.2683 29.5778 21.9617 29.5778 22.6251C29.5778 23.1274 29.3266 23.486 28.7947 23.8208L27.7125 24.5023V24.5142H29.1353Z" fill="black"/>
<path d="M34.474 5.83368C34.474 6.57374 33.874 7.17372 33.1337 7.17372C32.3936 7.17372 31.7933 6.57374 31.7933 5.83368C31.7933 5.09333 32.3936 4.49335 33.1337 4.49335C33.874 4.49335 34.474 5.09333 34.474 5.83368Z" fill="#6BDAE8"/>
<path d="M9.02167 34.6412C9.02167 35.1349 8.62159 35.535 8.12781 35.535C7.63434 35.535 7.23425 35.1349 7.23425 34.6412C7.23425 34.1477 7.63434 33.7476 8.12781 33.7476C8.62159 33.7476 9.02167 34.1477 9.02167 34.6412Z" fill="#00C8DE"/>
<path d="M15.2088 32.5745C15.2088 33.5129 14.448 34.2737 13.5093 34.2737C12.5706 34.2737 11.8098 33.5129 11.8098 32.5745C11.8098 31.6358 12.5706 30.875 13.5093 30.875C14.448 30.875 15.2088 31.6358 15.2088 32.5745Z" fill="#6BDAE8"/>
<path d="M33.4877 4.54187C33.5728 4.71826 33.622 4.9151 33.622 5.12415C33.622 5.86451 33.022 6.46448 32.2816 6.46448C32.1589 6.46448 32.0408 6.44648 31.9279 6.41566C32.1449 6.86396 32.6024 7.17372 33.1337 7.17372C33.874 7.17372 34.474 6.57374 34.474 5.83368C34.474 5.21601 34.0559 4.69751 33.4877 4.54187Z" fill="#00C8DE"/>
<path d="M14.1114 30.9852C14.267 31.2418 14.3568 31.543 14.3568 31.865C14.3568 32.8037 13.5956 33.5645 12.6572 33.5645C12.4451 33.5645 12.2422 33.5254 12.0551 33.4543C12.353 33.9457 12.8928 34.274 13.5093 34.274C14.448 34.274 15.2088 33.5132 15.2088 32.5745C15.2088 31.8479 14.7526 31.2281 14.1114 30.9852Z" fill="#00C8DE"/>
<path d="M33.5493 29.6912H30.6932C30.3691 29.6912 30.1063 29.4281 30.1063 29.104C30.1063 28.7796 30.3691 28.5169 30.6932 28.5169H33.5493C36.4589 28.5169 38.8261 26.1499 38.8261 23.2401V19.8138C38.8261 16.9043 36.4589 14.5373 33.5493 14.5373C32.7962 14.5373 32.0683 14.6933 31.3859 15.0009C31.0338 15.1599 30.63 15.13 30.3065 14.9209C29.9849 14.7134 29.7932 14.3606 29.7932 13.9773V12.2693C29.7932 9.35971 27.426 6.99276 24.5164 6.99276C22.6469 6.99276 20.8994 7.99801 19.9558 9.61667C19.7993 9.88553 19.5463 10.0732 19.2439 10.1446C18.9439 10.2157 18.6231 10.159 18.3637 9.98959C17.5068 9.4299 16.511 9.13388 15.4835 9.13388C14.1089 9.13388 12.8074 9.6597 11.8189 10.6143C11.5854 10.8395 11.2137 10.8331 10.9885 10.5999C10.7633 10.3665 10.77 9.99478 11.0032 9.76956C12.212 8.60256 13.8032 7.95986 15.4835 7.95986C16.7243 7.95986 17.9276 8.31295 18.9671 8.98159C20.1258 7.02938 22.2474 5.81844 24.5164 5.81844C28.0735 5.81844 30.9672 8.71243 30.9672 12.2693V13.9023C31.7836 13.5446 32.6518 13.3633 33.5493 13.3633C37.1062 13.3633 39.9999 16.257 39.9999 19.8138V23.2404C40.0002 26.7972 37.1065 29.6912 33.5493 29.6912Z" fill="black"/>
<path d="M27.9063 29.6912H6.45083C2.89369 29.6912 0 26.7972 0 23.2404V21.7984C0 18.2413 2.89369 15.3476 6.45083 15.3476C7.34836 15.3476 8.21659 15.5288 9.03293 15.8868V14.4107C9.03293 13.7234 9.14036 13.0468 9.35276 12.3992C9.45377 12.0913 9.78519 11.9232 10.0934 12.0245C10.4017 12.1255 10.5695 12.4572 10.4685 12.7652C10.2948 13.2943 10.2069 13.8479 10.2069 14.4107V15.9619C10.2069 16.3452 10.015 16.698 9.69364 16.9055C9.37015 17.1145 8.9664 17.1444 8.61392 16.9854C7.93185 16.6778 7.20401 16.5219 6.45083 16.5219C3.54127 16.5219 1.17402 18.8888 1.17402 21.7984V23.2404C1.17402 26.1499 3.54127 28.5169 6.45083 28.5169H27.9063C28.2304 28.5169 28.4935 28.7799 28.4935 29.104C28.4935 29.4281 28.2304 29.6912 27.9063 29.6912Z" fill="black"/>
<path d="M33.1337 7.76088C32.071 7.76088 31.2065 6.89631 31.2065 5.83369C31.2065 4.77076 32.071 3.90619 33.1337 3.90619C34.1966 3.90619 35.0612 4.77076 35.0612 5.83369C35.0612 6.89631 34.1966 7.76088 33.1337 7.76088ZM33.1337 5.0802C32.7183 5.0802 32.3805 5.41834 32.3805 5.83369C32.3805 6.24903 32.7183 6.58686 33.1337 6.58686C33.549 6.58686 33.8872 6.24903 33.8872 5.83369C33.8872 5.41834 33.549 5.0802 33.1337 5.0802Z" fill="black"/>
<path d="M8.12775 36.1219C7.3114 36.1219 6.64734 35.4578 6.64734 34.6412C6.64734 33.8248 7.3114 33.1604 8.12775 33.1604C8.94441 33.1604 9.60847 33.8248 9.60847 34.6412C9.60847 35.4578 8.94441 36.1219 8.12775 36.1219ZM8.12775 34.3348C7.95899 34.3348 7.82135 34.4721 7.82135 34.6412C7.82135 34.8102 7.95868 34.9479 8.12775 34.9479C8.29682 34.9479 8.43445 34.8102 8.43445 34.6412C8.43445 34.4721 8.29682 34.3348 8.12775 34.3348Z" fill="black"/>
<path d="M13.5093 34.8609C12.2486 34.8609 11.2226 33.8352 11.2226 32.5745C11.2226 31.3138 12.2483 30.2878 13.5093 30.2878C14.7703 30.2878 15.796 31.3135 15.796 32.5745C15.7957 33.8352 14.77 34.8609 13.5093 34.8609ZM13.5093 31.4621C12.8959 31.4621 12.3969 31.9611 12.3969 32.5745C12.3969 33.1879 12.8959 33.6869 13.5093 33.6869C14.1227 33.6869 14.6217 33.1879 14.6217 32.5745C14.6217 31.9611 14.1227 31.4621 13.5093 31.4621Z" fill="black"/>
</svg>
