<svg width="513" height="411" viewBox="0 0 513 411" fill="none" xmlns="http://www.w3.org/2000/svg">
<path d="M503.864 222.181C503.856 190.535 487.924 161.016 461.471 143.641C435.018 126.269 401.599 123.378 372.555 135.948C386.034 81.8407 353.77 26.8909 299.955 12.2982C246.14 -2.2986 190.531 28.8266 174.828 82.3288C151.834 63.2307 118.268 64.0442 96.2249 84.2353C74.1815 104.426 70.4312 137.796 87.4434 162.376H76.6804V162.876C37.8709 167.344 8.57715 200.201 8.57715 239.269C8.57715 278.333 37.8709 311.189 76.6804 315.657V316.162H418.427V315.732C466.803 311.318 503.843 270.757 503.864 222.181V222.181Z" fill="#96D1F3"/>
<path d="M409.884 119.657C401.019 119.657 392.196 120.805 383.627 123.074C384.048 119.098 384.257 115.106 384.253 111.114C384.269 58.0536 346.753 12.39 294.698 2.11509C242.644 -8.16401 190.589 19.8115 170.44 68.8959C145.005 54.395 113.158 57.6782 91.223 77.0725C69.284 96.4626 62.117 127.663 73.389 154.683C29.0394 161.003 -2.8992 200.509 0.208725 245.201C3.32082 289.893 40.4241 324.589 85.2241 324.705C89.9423 324.705 93.7678 320.88 93.7678 316.162C93.7678 311.439 89.9423 307.618 85.2241 307.618C47.4743 307.618 16.8747 277.014 16.8747 239.269C16.8747 201.519 47.4743 170.919 85.2241 170.919H86.5215C89.8589 171.253 93.0878 169.63 94.8107 166.756C96.5128 163.857 96.3584 160.231 94.4186 157.486C88.3821 148.918 85.1699 138.68 85.2241 128.201C85.2158 108.319 96.7172 90.2259 114.726 81.8032C132.74 73.3805 153.995 76.1463 169.251 88.8993C171.458 90.764 174.461 91.3856 177.227 90.5513C179.997 89.7169 182.154 87.5393 182.963 84.7651C196.5 34.6503 248.092 5.00192 298.203 18.535C348.317 32.0722 377.966 83.668 364.433 133.779C363.649 136.928 364.712 140.245 367.182 142.351C369.656 144.454 373.102 144.975 376.084 143.699C407.093 130.308 443.078 136.444 467.9 159.351C492.717 182.258 501.711 217.638 490.848 249.619C479.981 281.599 451.296 304.176 417.66 307.222C415.094 307.455 412.533 307.618 409.884 307.618C405.165 307.618 401.34 311.439 401.34 316.162C401.34 320.88 405.165 324.705 409.884 324.705C413.054 324.705 416.12 324.526 419.187 324.242C473.598 319.069 514.381 272.121 511.899 217.522C509.417 162.922 464.537 119.87 409.884 119.657V119.657Z" fill="#1E81CE"/>
<path d="M84.7443 188.007C56.7062 188.47 34.1623 211.226 33.962 239.269C33.962 243.987 37.7875 247.812 42.5057 247.812C47.2239 247.812 51.0494 243.987 51.0494 239.269C51.2079 220.546 66.2803 205.374 85.003 205.094C89.7212 205.023 93.4882 201.139 93.4173 196.421C93.434 194.139 92.5204 191.949 90.8809 190.36C89.2414 188.77 87.0263 187.919 84.7443 188.007Z" fill="#1E81CE"/>
<path d="M409.884 170.919C438.185 170.944 461.117 193.88 461.146 222.181C461.146 226.9 464.971 230.725 469.689 230.725C474.408 230.725 478.233 226.9 478.233 222.181C478.191 184.448 447.613 153.874 409.884 153.832C405.166 153.832 401.34 157.653 401.34 162.376C401.34 167.094 405.166 170.919 409.884 170.919Z" fill="#1E81CE"/>
<path d="M339.244 102.099C339.987 102.094 340.729 101.994 341.447 101.807C346.01 100.593 348.722 95.9119 347.504 91.3522C341.326 68.1283 324.643 49.1261 302.412 39.9984C280.181 30.8665 254.963 32.6562 234.242 44.8293C231.53 46.3394 229.853 49.2012 229.857 52.305C229.862 55.4087 231.547 58.2622 234.259 59.7682C236.974 61.27 240.291 61.1866 242.923 59.5429C259.039 50.0815 278.646 48.7006 295.929 55.8009C313.212 62.9053 326.182 77.6774 330.992 95.7325C331.981 99.4829 335.368 102.094 339.244 102.099Z" fill="#1E81CE"/>
<path d="M328.417 256.356H294.243C275.37 256.356 260.068 271.654 260.068 290.531V375.967C260.068 394.84 275.37 410.142 294.243 410.142H328.417C347.29 410.142 362.592 394.84 362.592 375.967V290.531C362.592 271.654 347.29 256.356 328.417 256.356ZM345.505 375.967C345.505 385.404 337.854 393.055 328.417 393.055H294.243C284.806 393.055 277.155 385.404 277.155 375.967V290.531C277.155 281.09 284.806 273.443 294.243 273.443H328.417C337.854 273.443 345.505 281.09 345.505 290.531V375.967Z" fill="#1E81CE"/>
<path d="M183.175 273.443H217.349C226.786 273.443 234.437 281.09 234.437 290.531C234.437 295.249 238.262 299.074 242.98 299.074C247.699 299.074 251.524 295.249 251.524 290.531C251.524 271.654 236.222 256.356 217.349 256.356H183.175C164.302 256.356 149 271.654 149 290.531V375.967C149 394.84 164.302 410.142 183.175 410.142H217.349C236.222 410.142 251.524 394.84 251.524 375.967C251.524 371.245 247.699 367.424 242.98 367.424C238.262 367.424 234.437 371.245 234.437 375.967C234.437 385.404 226.786 393.055 217.349 393.055H183.175C173.738 393.055 166.087 385.404 166.087 375.967V290.531C166.087 281.09 173.738 273.443 183.175 273.443Z" fill="#1E81CE"/>
</svg>
