<svg width="479" height="396" viewBox="0 0 479 396" fill="none" xmlns="http://www.w3.org/2000/svg">
<path d="M394.667 93.717C388.639 93.7353 382.633 94.4521 376.766 95.8488C368.831 49.3469 326.722 16.5921 279.696 20.3367C232.675 24.0858 196.281 63.0986 195.812 110.267C195.812 112.353 195.987 114.393 196.125 116.446C193.598 116.148 191.057 115.987 188.512 115.973C152.132 115.973 122.644 145.466 122.644 181.841C122.644 218.221 152.132 247.709 188.512 247.709H394.676C422.335 247.93 447.987 233.296 461.876 209.377C475.77 185.462 475.77 155.928 461.876 132.013C447.987 108.093 422.335 93.4642 394.676 93.6802L394.667 93.717Z" fill="#A1A4CF"/>
<path d="M74.097 70.4223C79.3808 70.4453 84.6416 71.0748 89.7783 72.3061C96.7346 31.5842 133.611 2.89556 174.792 6.1761C215.978 9.45664 247.851 43.6175 248.269 84.9275C248.269 86.7515 248.122 88.5434 247.993 90.3399C250.208 90.078 252.436 89.9448 254.665 89.9356C286.533 89.9356 312.364 115.766 312.364 147.635C312.364 179.503 286.533 205.333 254.665 205.333H74.097C49.81 205.623 27.2413 192.827 15.0105 171.839C2.78427 150.851 2.78427 124.91 15.0105 103.922C27.2413 82.9334 49.81 70.1421 74.097 70.4269V70.4223Z" fill="#6C9DFD"/>
<path d="M130.831 128.052C137.227 128.075 143.595 128.833 149.816 130.318C158.21 80.9899 202.874 46.2318 252.753 50.2061C302.627 54.1851 341.217 95.5824 341.691 145.618C341.691 147.828 341.507 149.992 341.355 152.165C344.039 151.857 346.736 151.701 349.437 151.696C374.528 151.489 397.8 164.759 410.407 186.454C423.015 208.15 423.015 234.941 410.407 256.637C397.8 278.332 374.528 291.602 349.437 291.395H130.831C101.513 291.62 74.3219 276.104 59.5963 250.746C44.8706 225.389 44.8706 194.081 59.5963 168.728C74.3219 143.371 101.513 127.855 130.831 128.075V128.052Z" fill="white"/>
<path d="M196.341 218.442L207.032 221.833C205.861 227.048 202.985 231.725 198.854 235.116C188.695 241.911 175.155 240.62 166.462 232.023C161.56 226.427 159.042 219.131 159.455 211.702C158.987 203.996 161.514 196.406 166.513 190.53C171.309 185.462 178.059 182.719 185.029 182.999C191.025 182.746 196.874 184.878 201.308 188.926C204.046 191.71 205.98 195.184 206.895 198.984L195.982 201.589C194.935 196.112 190.042 192.216 184.468 192.423C180.692 192.303 177.066 193.907 174.618 196.783C171.741 200.9 170.409 205.894 170.855 210.898C170.377 216.094 171.691 221.3 174.581 225.651C176.956 228.532 180.531 230.153 184.266 230.043C187.051 230.098 189.748 229.101 191.829 227.25C194.209 224.856 195.789 221.778 196.341 218.442Z" fill="#6CC5A4"/>
<path d="M214.26 211.55C214.117 206.758 214.963 201.989 216.755 197.546C217.991 194.766 219.714 192.23 221.841 190.052C223.83 187.952 226.233 186.28 228.898 185.136C232.634 183.633 236.631 182.898 240.66 182.976C247.865 182.645 254.876 185.365 259.976 190.465C265.067 196.167 267.677 203.661 267.222 211.293C267.667 218.874 265.081 226.322 260.031 231.991C254.968 237.087 247.984 239.798 240.807 239.462C233.594 239.82 226.559 237.119 221.437 232.028C216.41 226.432 213.828 219.062 214.26 211.55ZM225.622 211.178C225.259 216.236 226.785 221.245 229.909 225.242C232.693 228.283 236.626 230.02 240.748 230.025C244.874 230.034 248.811 228.311 251.605 225.279C254.72 221.208 256.227 216.135 255.841 211.026C256.231 206.013 254.766 201.028 251.724 197.022C248.843 194.058 244.883 192.39 240.752 192.404C236.617 192.413 232.666 194.1 229.799 197.077C226.725 201.106 225.236 206.124 225.622 211.178Z" fill="#6CC5A4"/>
<path d="M308.89 228.798V238.525H272.188C272.597 234.817 273.82 231.252 275.768 228.072C279.117 223.229 283.068 218.828 287.53 214.978C290.668 212.248 293.572 209.257 296.209 206.041C297.555 204.171 298.304 201.938 298.368 199.632C298.497 197.656 297.817 195.712 296.485 194.251C293.466 191.711 289.046 191.747 286.073 194.343C284.585 196.199 283.79 198.524 283.84 200.904L273.443 199.852C273.567 195.078 275.68 190.576 279.273 187.428C282.83 184.828 287.162 183.505 291.564 183.665C296.204 183.399 300.767 184.961 304.268 188.021C307.291 190.796 308.973 194.738 308.89 198.841C308.899 201.244 308.449 203.629 307.567 205.866C306.51 208.384 305.1 210.737 303.377 212.855C301.263 215.341 298.97 217.67 296.521 219.82C293.218 222.853 291.123 224.865 290.245 225.858C289.437 226.753 288.715 227.728 288.104 228.766L308.89 228.798Z" fill="#6CC5A4"/>
<path d="M367.365 294.56C367.365 310.747 354.243 323.869 338.057 323.869C321.874 323.869 308.752 310.747 308.752 294.56C308.752 278.378 321.874 265.256 338.057 265.256C354.243 265.256 367.365 278.378 367.365 294.56V294.56Z" fill="#A1A4CF"/>
<path d="M305.862 369.393C305.862 380.838 296.586 390.114 285.145 390.114C273.7 390.114 264.424 380.838 264.424 369.393C264.424 357.952 273.7 348.671 285.145 348.671C296.586 348.671 305.862 357.952 305.862 369.393Z" fill="#A1A4CF"/>
<path d="M288.201 291.372C288.201 288.124 285.568 285.491 282.32 285.491H130.721C103.502 285.707 78.2643 271.312 64.5954 247.774C50.9219 224.241 50.9219 195.184 64.5954 171.651C78.2643 148.117 103.502 133.718 130.721 133.934C136.662 133.957 142.584 134.664 148.369 136.043C149.954 136.41 151.626 136.107 152.977 135.202C154.332 134.292 155.247 132.868 155.509 131.255C162.865 88.4428 199.502 56.8274 242.93 55.8165C286.358 54.8011 324.429 84.6752 333.774 127.097C334.165 129.197 335.663 130.92 337.689 131.595C339.711 132.275 341.944 131.802 343.52 130.359C345.095 128.921 345.771 126.739 345.275 124.662C334.923 77.5674 293.19 44.0222 244.97 44.0406C244.46 44.0406 243.959 44.0957 243.454 44.1049C226.279 13.2568 191.976 -3.93618 156.988 0.768691C121.996 5.47815 93.4541 31.1206 85.0414 65.4101C81.3841 64.8357 77.6854 64.5463 73.9822 64.5417C33.32 64.4084 0.225135 97.2139 0 137.876C0.0137838 155.216 6.19811 171.986 17.4457 185.177C19.5868 187.502 23.1843 187.718 25.5873 185.664C27.9903 183.615 28.3441 180.027 26.3868 177.55C16.9495 166.482 11.7622 152.418 11.753 137.876C11.9689 103.706 39.8122 76.1568 73.9822 76.3038C78.8157 76.3268 83.6262 76.9011 88.3265 78.0176C89.9116 78.3852 91.5795 78.082 92.9349 77.1768C94.2903 76.2671 95.2046 74.8428 95.4665 73.2301C100.64 43.2687 123.599 19.51 153.368 13.3119C183.131 7.11383 213.667 19.7306 230.373 45.1341C188.378 50.836 154.355 82.0425 145.056 123.385C140.319 122.585 135.522 122.181 130.721 122.172C99.2938 121.942 70.1503 138.574 54.3724 165.756C38.59 192.938 38.59 226.492 54.3724 253.669C70.1503 280.851 99.2938 297.483 130.721 297.253H282.32C285.568 297.253 288.201 294.621 288.201 291.372V291.372Z" fill="#4F51AF"/>
<path d="M478.192 170.732C477.934 124.767 440.521 87.6842 394.556 87.8358C390.113 87.845 385.679 88.2126 381.296 88.9385C371.234 44.9315 331.946 13.8307 286.808 14.1293C276.255 14.1155 265.765 15.8155 255.758 19.165C252.675 20.1942 251.012 23.5253 252.046 26.6083C253.075 29.6866 256.406 31.3499 259.489 30.3207C268.297 27.3756 277.523 25.8777 286.808 25.8915C328.463 25.5928 364.122 55.6875 370.834 96.7999C371.092 98.408 372.011 99.8369 373.366 100.742C374.717 101.647 376.389 101.955 377.974 101.583C383.401 100.292 388.96 99.6256 394.542 99.6026C428.212 99.1891 457.539 122.479 464.766 155.367C471.989 188.255 455.122 221.695 424.38 235.433C425.253 230.847 425.698 226.193 425.712 221.525C425.487 179.53 391.308 145.64 349.313 145.774C346.391 145.787 343.473 145.962 340.57 146.302C337.372 146.702 335.093 149.596 335.456 152.799C335.814 156.001 338.686 158.317 341.893 157.991C344.356 157.692 346.832 157.536 349.313 157.517C380.731 157.104 407.789 179.595 413.123 210.558C418.457 241.525 400.483 271.771 370.738 281.893C364.149 264.999 345.78 255.906 328.348 260.91C310.921 265.909 300.169 283.363 303.546 301.181C306.919 318.995 323.308 331.308 341.36 329.594C359.408 327.876 373.182 312.695 373.136 294.561C373.136 294.198 373.095 293.839 373.081 293.472C394.538 286.561 411.814 270.476 420.235 249.57C454.585 238.608 477.98 206.785 478.192 170.732V170.732ZM337.951 317.988C325.012 317.988 314.523 307.499 314.523 294.561C314.523 281.627 325.012 271.137 337.951 271.137C350.889 271.137 361.374 281.627 361.374 294.561C361.365 307.494 350.885 317.975 337.951 317.988Z" fill="#4F51AF"/>
<path d="M314.179 126.89C307.232 107.781 292.984 92.2145 274.569 83.6042C271.623 82.2304 268.122 83.5077 266.749 86.4529C265.375 89.398 266.647 92.8991 269.593 94.2729C285.164 101.551 297.211 114.71 303.083 130.864C303.923 133.203 306.138 134.76 308.619 134.76C309.299 134.76 309.97 134.646 310.604 134.416C312.079 133.892 313.283 132.808 313.953 131.393C314.624 129.982 314.702 128.36 314.179 126.89Z" fill="#4F51AF"/>
<path d="M246.39 88.3597H246.78C250.029 88.4607 252.744 85.9153 252.85 82.667C252.955 79.4186 250.41 76.6986 247.162 76.5975C245.466 76.4826 243.757 76.4275 242.039 76.4275C238.79 76.4275 236.157 79.0602 236.157 82.3086C236.157 85.557 238.79 88.1897 242.039 88.1897C243.5 88.2172 244.952 88.2632 246.39 88.3597Z" fill="#4F51AF"/>
<path d="M184.344 192.4C189.913 192.193 194.797 196.075 195.854 201.543L206.771 198.938C205.852 195.138 203.922 191.66 201.179 188.876C196.75 184.828 190.896 182.7 184.9 182.953C177.93 182.673 171.181 185.416 166.389 190.484C161.385 196.36 158.858 203.95 159.331 211.656C158.918 219.08 161.431 226.377 166.334 231.973C175.027 240.569 188.567 241.86 198.73 235.065C202.856 231.67 205.737 226.997 206.904 221.782L196.212 218.391C195.647 221.722 194.062 224.796 191.668 227.185C189.587 229.037 186.89 230.034 184.105 229.979C180.37 230.089 176.795 228.467 174.42 225.586C171.53 221.235 170.216 216.03 170.694 210.829C170.248 205.83 171.581 200.831 174.457 196.714C176.924 193.847 180.563 192.257 184.344 192.4Z" fill="#4F51AF"/>
<path d="M221.731 190.052C219.608 192.23 217.885 194.766 216.644 197.546C214.852 201.989 214.002 206.758 214.145 211.55C213.722 219.058 216.309 226.427 221.335 232.019C226.463 237.11 233.493 239.811 240.711 239.453C247.888 239.788 254.867 237.078 259.935 231.982C264.984 226.312 267.571 218.865 267.125 211.283C267.575 203.652 264.97 196.158 259.879 190.456C254.779 185.356 247.768 182.636 240.559 182.967C236.534 182.889 232.532 183.624 228.797 185.126C226.132 186.27 223.725 187.947 221.731 190.052ZM240.674 192.404C244.823 192.239 248.834 193.934 251.605 197.026C254.646 201.033 256.112 206.018 255.721 211.031C256.107 216.14 254.6 221.212 251.49 225.283C248.696 228.316 244.754 230.039 240.633 230.029C236.507 230.025 232.574 228.288 229.789 225.246C226.67 221.249 225.14 216.241 225.503 211.182C225.112 206.124 226.601 201.102 229.679 197.068C232.463 193.953 236.493 192.239 240.674 192.4V192.404Z" fill="#4F51AF"/>
<path d="M296.407 219.857C298.86 217.707 301.148 215.377 303.262 212.892C304.985 210.773 306.395 208.421 307.452 205.903C308.339 203.67 308.784 201.286 308.775 198.878C308.858 194.775 307.176 190.838 304.158 188.058C300.657 184.998 296.094 183.431 291.454 183.698C287.047 183.537 282.719 184.865 279.159 187.46C275.566 190.599 273.443 195.097 273.31 199.866L283.739 200.913C283.693 198.533 284.484 196.209 285.977 194.352C288.95 191.756 293.37 191.72 296.388 194.26C297.721 195.722 298.401 197.665 298.272 199.641C298.208 201.947 297.454 204.18 296.108 206.05C293.475 209.266 290.572 212.258 287.429 214.991C282.972 218.837 279.016 223.239 275.667 228.081C273.719 231.261 272.501 234.826 272.092 238.534H308.789V228.798H287.989C288.605 227.76 289.322 226.786 290.13 225.89C291.013 224.897 293.103 222.889 296.407 219.857V219.857Z" fill="#4F51AF"/>
<path d="M285.03 342.785C270.337 342.785 258.423 354.699 258.423 369.397C258.423 384.091 270.337 396 285.035 396C299.729 396 311.638 384.082 311.638 369.388C311.619 354.704 299.715 342.804 285.03 342.785V342.785ZM285.03 384.233C276.834 384.233 270.185 377.585 270.185 369.388C270.185 361.191 276.834 354.543 285.03 354.543C293.227 354.543 299.876 361.191 299.876 369.388C299.866 377.585 293.227 384.224 285.03 384.233Z" fill="#4F51AF"/>
</svg>
