<svg height="511pt" viewBox="-80 1 511 511.999" width="511pt" xmlns="http://www.w3.org/2000/svg"><path d="m305.8125 220.25c-49.722656-98.375-129.460938-207.535156-129.460938-207.535156s-54.945312 75.21875-102.058593 157.050781l-66.289063-66.292969v232.675782c0 92.976562 75.371094 168.347656 168.347656 168.347656 92.976563 0 168.347657-75.371094 168.347657-168.347656v-154.785157zm0 0" fill="#d15573"/><path d="m257.753906 388.097656c0 44.957032-36.445312 81.402344-81.402344 81.402344-44.957031 0-81.402343-36.445312-81.402343-81.402344 0-44.957031 81.402343-156.390625 81.402343-156.390625s81.402344 111.433594 81.402344 156.390625zm0 0" fill="#f8e868"/><path d="m38.003906 336.152344v-202.675782l-30-30v232.675782c0 92.976562 75.371094 168.347656 168.347656 168.347656 5.058594 0 10.058594-.238281 15-.675781-85.945312-7.589844-153.347656-79.753907-153.347656-167.671875zm0 0" fill="#c21d44"/><path d="m104.292969 169.765625c31.945312-55.480469 67.480469-107.917969 87.058593-135.9375-9.296874-13.308594-15-21.113281-15-21.113281s-46.742187 63.992187-90.96875 138.136718zm0 0" fill="#c21d44"/><path d="m124.949219 388.097656c0-32.632812 42.890625-100.289062 66.402343-134.929687-8.878906-13.078125-15-21.460938-15-21.460938s-81.402343 111.433594-81.402343 156.390625c0 44.957032 36.445312 81.402344 81.402343 81.402344 5.125 0 10.136719-.496094 15-1.402344-37.789062-7.042968-66.402343-40.171875-66.402343-80zm0 0" fill="#e0c938"/><path d="m196.351562 437h-15v-15h15zm-25 0h-15v-15h15zm0 0" fill="#fff"/><path d="m15.5 121.582031 60.410156 60.40625 4.882813-8.480469c37.296875-64.789062 80.011719-126.074218 95.558593-147.933593 10.578126 14.863281 33.710938 47.941406 59.050782 87.804687l12.660156-8.046875c-34.699219-54.582031-65.347656-96.621093-65.652344-97.042969l-6.058594-8.289062-6.054687 8.292969c-.535156.726562-51.960937 71.308593-97.597656 149.277343l-72.199219-72.203124v143.671874h15zm0 0"/><path d="m307.789062 207.664062c-13.449218-25.855468-29.917968-54.503906-49.046874-85.324218l-12.742188 7.910156c21.195312 34.152344 39.066406 65.570312 53.117188 93.378906l4.671874 9.246094 33.414063-33.410156v136.683594c0 88.691406-72.15625 160.851562-160.851563 160.851562-88.695312 0-160.851562-72.160156-160.851562-160.851562v-87.113282h-15v87.113282c0 96.964843 78.886719 175.851562 175.851562 175.851562 96.964844 0 175.851563-78.886719 175.851563-175.851562v-172.898438zm0 0"/><path d="m170.164062 69.136719c15.410157 22.464843 38.546876 57.148437 61.253907 94.789062l12.84375-7.746093c-22.894531-37.957032-46.203125-72.898438-61.726563-95.527344zm0 0"/><path d="m124.179688 297.601562c-24.371094 41.300782-36.730469 71.746094-36.730469 90.496094 0 49.019532 39.882812 88.902344 88.902343 88.902344 23.355469 0 45.425782-9.003906 62.140626-25.351562l-10.488282-10.722657c-13.894531 13.589844-32.238281 21.074219-51.652344 21.074219-40.75 0-73.902343-33.152344-73.902343-73.902344 0-11.023437 6.011719-34.34375 34.648437-82.871094zm0 0"/><path d="m252.257812 434.390625c8.503907-13.914063 12.996094-29.921875 12.996094-46.292969 0-46.867187-79.464844-156.183594-82.84375-160.816406l-6.058594-8.289062-6.058593 8.292968c-.167969.230469-17.285157 23.714844-35.625 53.0625l12.722656 7.949219c11.480469-18.375 22.46875-34.40625 28.980469-43.6875 25.164062 35.710937 73.878906 111.449219 73.878906 143.488281 0 13.609375-3.730469 26.914063-10.792969 38.472656zm0 0"/></svg>