<svg width="33" height="32" viewBox="0 0 33 32" fill="none" xmlns="http://www.w3.org/2000/svg">
<g clip-path="url(#clip0)">
<path d="M23.5102 20.6111C23.5102 26.6421 18.621 31.531 12.59 31.531C6.55902 31.531 1.6701 26.6421 1.6701 20.6111C1.6701 14.5801 12.59 0.756348 12.59 0.756348C12.59 0.756348 23.5102 14.5801 23.5102 20.6111Z" fill="#96D1F3"/>
<path d="M24.496 0.756592C24.496 0.756592 20.8325 5.39477 18.7346 9.49463C21.2184 13.4502 23.5102 17.8484 23.5102 20.6111C23.5102 20.7275 23.5078 20.8433 23.5041 20.9587C23.8283 21.0034 24.1594 21.0271 24.496 21.0271C28.4684 21.0271 31.6889 17.8066 31.6889 13.8342C31.6889 9.86181 24.496 0.756592 24.496 0.756592Z" fill="#96D1F3"/>
<path d="M3.54584 20.6111C3.54584 15.668 10.8813 5.48999 13.5278 1.979C12.9455 1.20654 12.59 0.756348 12.59 0.756348C12.59 0.756348 1.6701 14.5801 1.6701 20.6111C1.6701 26.6421 6.55902 31.531 12.59 31.531C12.9059 31.531 13.2187 31.5169 13.5278 31.4905C7.93598 31.0149 3.54584 26.3262 3.54584 20.6111Z" fill="#3CA6E6"/>
<path d="M25.3798 20.9585C25.3835 20.843 25.3859 20.7275 25.3859 20.6111C25.3859 17.8484 23.0939 13.4502 20.6103 9.49463C22.0434 6.69409 24.2065 3.64282 25.434 1.98975C24.8647 1.22314 24.496 0.756348 24.496 0.756348C24.496 0.756348 20.8325 5.39478 18.7348 9.49463C21.2184 13.4502 23.5102 17.8481 23.5102 20.6111C23.5102 20.7273 23.5077 20.843 23.5041 20.9585C23.8285 21.0034 24.1596 21.0271 24.496 21.0271C24.8154 21.0271 25.1296 21.0059 25.4379 20.9656C25.4184 20.9631 25.3989 20.9612 25.3798 20.9585Z" fill="#3CA6E6"/>
<path d="M14.0886 28.9465H13.1508V28.0088H14.0886V28.9465ZM12.5256 28.9465H11.5878V28.0088H12.5256V28.9465Z" fill="white"/>
<path d="M12.59 0C9.26849 4.20483 1.20111 15.262 1.20111 20.6111C1.20111 26.8909 6.31024 32 12.59 32C18.8701 32 23.9789 26.8909 23.9789 20.6111C23.9789 15.262 15.9116 4.20459 12.59 0V0ZM12.59 31.0623C6.82733 31.0623 2.13885 26.3738 2.13885 20.6111C2.13885 15.4277 10.6945 3.9917 12.59 1.52197C14.4855 3.99146 23.0412 15.4265 23.0412 20.6111C23.0412 26.3738 18.3527 31.0623 12.59 31.0623Z" fill="black"/>
<path d="M22.1035 20.6111C22.1035 19.084 21.1979 15.8665 16.8852 9.21118L16.0981 9.72119C20.6718 16.7788 21.1655 19.688 21.1655 20.6111H22.1035Z" fill="black"/>
<path d="M30.2822 13.8342C30.2822 13.2146 29.955 11.2683 26.9272 6.59448L26.1401 7.10449C29.1896 11.8118 29.3442 13.5364 29.3442 13.8342H30.2822Z" fill="black"/>
<path d="M24.864 0.46582L24.496 0C22.3185 2.75684 20.4699 5.50195 19.2756 7.54077L20.0847 8.01489C21.6882 5.27759 23.685 2.58765 24.496 1.52393C26.3981 4.01709 31.2199 10.7339 31.2199 13.8342C31.2199 17.302 28.6218 20.178 25.1765 20.5239L25.2702 21.4573C29.1555 21.0669 32.1577 17.7871 32.1577 13.8342C32.1577 9.74585 25.1618 0.842773 24.864 0.46582Z" fill="black"/>
</g>
<defs>
<clipPath id="clip0">
<rect width="32" height="32" fill="white" transform="translate(0.701111)"/>
</clipPath>
</defs>
</svg>
