<svg width="41" height="40" viewBox="0 0 41 40" fill="none" xmlns="http://www.w3.org/2000/svg">
<path d="M30.7291 3.51532C29.5853 2.37152 28.9438 1.73004 27.7997 0.585938H13.1467L10.2173 3.51532V36.4847C11.3615 37.6288 12.0026 38.27 13.1467 39.4141H27.7997L30.7294 36.4847V3.51532H30.7291Z" fill="#E5EBF5"/>
<path d="M25.6336 29.3738C25.5817 27.9486 24.9567 26.6797 23.989 25.78V3.87421H16.9577V25.7822C15.8979 26.7682 15.2558 28.1912 15.3128 29.7513C15.4169 32.6013 17.8119 34.8273 20.662 34.7229C23.512 34.6188 25.738 32.2238 25.6336 29.3738Z" fill="#96D1F3"/>
<path d="M23.2916 29.4595C23.2514 28.3575 22.5836 27.4271 21.6452 26.9974V15.5914H19.3015V26.9971C18.2947 27.4573 17.612 28.4906 17.6547 29.6655C17.7118 31.2222 19.0198 32.4377 20.5765 32.381C22.1329 32.3239 23.3484 31.0159 23.2916 29.4595Z" fill="#D15573"/>
<path d="M12.5611 36.4847V3.51532L15.4905 0.585938H13.1467L10.2173 3.51532V36.4847C11.3615 37.6288 12.0029 38.27 13.1467 39.4141H15.4905C14.3464 38.27 13.7052 37.6285 12.5611 36.4847Z" fill="#CAD8EA"/>
<path d="M17.6567 29.7513C17.5996 28.1912 18.2417 26.7682 19.3016 25.7822V3.87421H16.9578V25.7822C15.8982 26.7685 15.2558 28.1912 15.3129 29.7513C15.417 32.6013 17.812 34.8273 20.662 34.7229C20.9996 34.7107 21.3279 34.6652 21.6447 34.5917C19.4303 34.0768 17.7436 32.1326 17.6567 29.7513Z" fill="#3CA6E6"/>
<path d="M19.9985 29.6655C19.9558 28.4906 20.6384 27.4573 21.6452 26.9971V15.5914H19.3015V26.9971C18.2944 27.4573 17.612 28.4906 17.6547 29.6655C17.7118 31.2222 19.0198 32.4377 20.5765 32.381C20.958 32.3669 21.3187 32.2772 21.6458 32.1277C20.7068 31.6983 20.0391 30.7678 19.9985 29.6655Z" fill="#C21D44"/>
<path d="M22.0359 37.6562H20.864V36.4844H22.0359V37.6562ZM20.0828 37.6562H18.9109V36.4844H20.0828V37.6562Z" fill="white"/>
<path d="M13.5206 22.507V23.6789H16.3718V25.535C15.2662 26.6611 14.6693 28.1909 14.7272 29.7726C14.8429 32.9358 17.5092 35.4242 20.6834 35.3085C23.8517 35.1926 26.3352 32.5208 26.2192 29.3524C26.1664 27.9047 25.5848 26.5582 24.5746 25.5325V8.63647H23.4028V26.0355L23.5898 26.2094C24.4855 27.0419 25.0034 28.1732 25.0483 29.3951C25.1404 31.9177 23.1632 34.0451 20.6406 34.1376C18.1217 34.2279 15.9907 32.2525 15.8982 29.7299C15.8497 28.4015 16.3813 27.1188 17.3569 26.2109L17.5437 26.037V4.46014H23.4031V7.07397H24.575V3.28827H13.5206V4.46014H16.3718V6.49139H14.7706V7.66327H16.3718V9.69452H13.5206V10.8664H16.3718V12.8976H14.7706V14.0695H16.3718V16.1008H13.5206V17.2726H16.3718V19.3039H14.7706V20.4758H16.3718V22.507H13.5206Z" fill="black"/>
<path d="M18.7156 15.0055V26.6446C17.6597 27.2788 17.0237 28.4348 17.0695 29.6869C17.1378 31.5582 18.7144 33.0347 20.5979 32.9666C22.4747 32.8976 23.9457 31.315 23.8773 29.4382C23.8346 28.2736 23.2139 27.2348 22.2312 26.6449V15.0055H18.7156ZM22.7061 29.4809C22.7512 30.712 21.7859 31.7502 20.5549 31.7954C19.3241 31.8402 18.2856 30.8752 18.2404 29.6442C18.2071 28.7375 18.7192 27.9074 19.545 27.5299L19.8874 27.3734V16.1774H21.0593V27.3737L21.4011 27.5302C22.175 27.8845 22.6752 28.6319 22.7061 29.4809Z" fill="black"/>
<path d="M30.1432 36.2418L27.5571 38.8281H13.3893L10.8033 36.2418V32.8607H9.63141V36.7273L12.9041 40H28.0424L31.3151 36.7273V14.1852H30.1432V36.2418Z" fill="black"/>
<path d="M28.0424 0H12.9041L9.63141 3.27271V31.2982H10.8033V3.75824L13.3893 1.17188H27.5571L30.1432 3.75824V12.6227H31.3151V3.27271L28.0424 0Z" fill="black"/>
</svg>
