<?xml version="1.0" encoding="iso-8859-1"?>
<!-- Generator: Adobe Illustrator 19.0.0, SVG Export Plug-In . SVG Version: 6.00 Build 0)  -->
<svg version="1.1" id="Capa_1" xmlns="http://www.w3.org/2000/svg" xmlns:xlink="http://www.w3.org/1999/xlink" x="0px" y="0px"
	 viewBox="0 0 512 512" style="enable-background:new 0 0 512 512;" xml:space="preserve">
<g>
	<rect x="37" y="64" style="fill:#FEDA9B;" width="184" height="120"/>
	<rect x="291" y="64" style="fill:#FEDA9B;" width="184" height="120"/>
</g>
<polygon style="fill:#FF5D5D;" points="351.38,152.25 384,95.75 416.62,152.25 "/>
<rect x="437.88" y="276.13" style="fill:#A0E557;" width="48" height="60"/>
<polygon style="fill:#FFC66C;" points="139.146,448 10,448 10,392.065 139.146,392.065 372.854,392.065 502,392.065 502,448 
	372.854,448 "/>
<polygon style="fill:#FEDA9B;" points="139.146,392.065 10,392.065 10,336.13 139.146,336.13 372.854,336.13 502,336.13 
	502,392.065 372.854,392.065 "/>
<path style="fill:#4DBAF6;" d="M404,346v-73.333C404,260.148,393.852,250,381.333,250H130.667C118.148,250,108,260.148,108,272.667
	V346H404z"/>
<path style="fill:#ADE5FF;" d="M373.059,336.13H138.941C108.598,336.13,84,360.728,84,391.071V448h344v-56.929
	C428,360.728,403.402,336.13,373.059,336.13z"/>
<g>
	<path style="fill:#FE8F8D;" d="M237.653,288.13h-72.107c-10.133,0-18.347,8.214-18.347,18.347v29.653H256v-29.653
		C256,296.344,247.786,288.13,237.653,288.13z"/>
	<path style="fill:#FE8F8D;" d="M346.453,288.13h-72.107c-10.133,0-18.347,8.214-18.347,18.347v29.653h108.8v-29.653
		C364.8,296.344,356.586,288.13,346.453,288.13z"/>
</g>
<polygon style="fill:#FF5D5D;" points="74,296 10,296 26.623,248 57.377,248 "/>
<circle style="fill:#A0E557;" cx="129" cy="124" r="29"/>
<path d="M197,438c-2.641,0-5.21,1.069-7.07,2.93S187,445.37,187,448c0,2.64,1.069,5.21,2.93,7.069c1.86,1.86,4.43,2.931,7.07,2.931
	c2.63,0,5.21-1.07,7.069-2.931C205.93,453.21,207,450.64,207,448c0-2.63-1.07-5.21-2.931-7.07C202.21,439.069,199.63,438,197,438z"
	/>
<path d="M502,326.13h-6.12v-50c0-5.522-4.478-10-10-10h-13.974v-6.463c0-0.228-0.013-0.453-0.017-0.681
	c0.358-7.261,6.361-13.063,13.709-13.063c5.522,0,10-4.478,10-10s-4.478-10-10-10c-9.238,0-17.619,3.734-23.718,9.77
	c-6.1-6.035-14.48-9.77-23.718-9.77c-5.522,0-10,4.478-10,10s4.478,10,10,10c7.349,0,13.352,5.802,13.709,13.063
	c-0.004,0.227-0.017,0.452-0.017,0.681v6.463H437.88c-5.522,0-10,4.478-10,10v50H414v-53.463C414,254.654,399.346,240,381.333,240
	H130.667C112.654,240,98,254.654,98,272.667v53.463H52V306h22c3.235,0,6.271-1.564,8.146-4.2s2.361-6.016,1.303-9.072l-16.623-48
	C65.432,240.7,61.639,238,57.377,238H26.623c-4.262,0-8.055,2.7-9.449,6.728l-16.623,48c-1.059,3.057-0.573,6.437,1.303,9.072
	S6.765,306,10,306h22v20.13H10c-5.522,0-10,4.478-10,10V448c0,5.522,4.478,10,10,10h137.198c5.522,0,10-4.478,10-10s-4.478-10-10-10
	H94v-46.929c0-14.627,7.027-27.641,17.879-35.853c1.253-0.528,2.371-1.307,3.302-2.27c6.898-4.315,15.04-6.819,23.76-6.819h0.205
	h233.707h0.205c8.72,0,16.861,2.504,23.76,6.819c0.931,0.962,2.049,1.742,3.302,2.27c10.853,8.213,17.88,21.226,17.88,35.853V438
	H246c-5.522,0-10,4.478-10,10s4.478,10,10,10h256c5.522,0,10-4.478,10-10V336.13C512,330.607,507.522,326.13,502,326.13z
	 M33.742,258h16.516l9.696,28H24.046L33.742,258z M437.361,382.065c-1.931-13.849-8.243-26.307-17.491-35.936H492v35.936H437.361z
	 M447.88,286.13h28v40h-28V286.13z M118,272.667c0-6.984,5.683-12.667,12.667-12.667h250.666c6.984,0,12.667,5.683,12.667,12.667
	v53.463h-19.2v-19.653c0-15.631-12.716-28.347-28.347-28.347h-72.106c-6.993,0-13.398,2.551-18.347,6.763
	c-4.949-4.213-11.354-6.763-18.347-6.763h-72.106c-15.631,0-28.347,12.716-28.347,28.347v19.653H118V272.667z M92.129,346.13
	c-9.248,9.629-15.56,22.086-17.491,35.936H20V346.13H92.129z M20,438v-35.935h54V438H20z M157.2,306.477
	c0-4.603,3.744-8.347,8.347-8.347h72.106c4.603,0,8.347,3.744,8.347,8.347v19.653h-88.8V306.477z M266,326.13v-19.653
	c0-4.603,3.744-8.347,8.347-8.347h72.106c4.603,0,8.347,3.744,8.347,8.347v19.653H266z M438,438v-35.935h54V438H438z"/>
<path d="M37,194h184c5.522,0,10-4.478,10-10V64c0-5.522-4.478-10-10-10H37c-5.522,0-10,4.478-10,10v120
	C27,189.522,31.478,194,37,194z M47,74h164v100H47V74z"/>
<path d="M347,74c2.63,0,5.21-1.07,7.069-2.931C355.93,69.21,357,66.63,357,64s-1.07-5.21-2.931-7.07C352.21,55.069,349.63,54,347,54
	s-5.21,1.069-7.07,2.93S337,61.37,337,64c0,2.63,1.069,5.21,2.93,7.069C341.79,72.93,344.37,74,347,74z"/>
<path d="M291,194h184c5.522,0,10-4.478,10-10V64c0-5.522-4.478-10-10-10h-92c-5.522,0-10,4.478-10,10s4.478,10,10,10h82v100H301V74
	h8.5c5.522,0,10-4.478,10-10s-4.478-10-10-10H291c-5.522,0-10,4.478-10,10v120C281,189.522,285.478,194,291,194z"/>
<path d="M129,85c-21.505,0-39,17.495-39,39s17.495,39,39,39s39-17.495,39-39S150.505,85,129,85z M129,143c-10.477,0-19-8.523-19-19
	s8.523-19,19-19s19,8.523,19,19S139.477,143,129,143z"/>
<path d="M342.72,157.25c1.786,3.094,5.088,5,8.66,5h65.24c3.572,0,6.874-1.906,8.66-5s1.786-6.906,0-10l-32.62-56.5
	c-1.786-3.094-5.088-5-8.66-5s-6.874,1.906-8.66,5l-32.62,56.5C340.934,150.344,340.934,154.156,342.72,157.25z M384,115.75
	l15.3,26.5h-30.6L384,115.75z"/>
<g>
</g>
<g>
</g>
<g>
</g>
<g>
</g>
<g>
</g>
<g>
</g>
<g>
</g>
<g>
</g>
<g>
</g>
<g>
</g>
<g>
</g>
<g>
</g>
<g>
</g>
<g>
</g>
<g>
</g>
</svg>
