<?xml version="1.0" encoding="iso-8859-1"?>
<!-- Generator: Adobe Illustrator 19.0.0, SVG Export Plug-In . SVG Version: 6.00 Build 0)  -->
<svg version="1.1" id="Capa_1" xmlns="http://www.w3.org/2000/svg" xmlns:xlink="http://www.w3.org/1999/xlink" x="0px" y="0px"
	 viewBox="0 0 512 512" style="enable-background:new 0 0 512 512;" xml:space="preserve">
<rect x="255.998" y="10" style="fill:#C9F3FF;" width="245.998" height="40"/>
<g>
	<path style="fill:#72D8FF;" d="M30.004,104.001L30.004,104.001c-11.046,0-20-8.954-20-20l0,0c0-11.046,8.954-20,20-20l0,0
		c11.046,0,20,8.954,20,20l0,0C50.004,95.047,41.05,104.001,30.004,104.001z"/>
	<path style="fill:#72D8FF;" d="M30.004,254.29L30.004,254.29c-11.046,0-20-8.954-20-20l0,0c0-11.046,8.954-20,20-20l0,0
		c11.046,0,20,8.954,20,20l0,0C50.004,245.336,41.05,254.29,30.004,254.29z"/>
	<path style="fill:#72D8FF;" d="M185.99,50.002L185.99,50.002c11.046,0,20-8.954,20-20l0,0c0-11.046-8.954-20-20-20l0,0
		c-11.046,0-20,8.954-20,20l0,0C165.99,41.048,174.944,50.002,185.99,50.002z"/>
	<path style="fill:#72D8FF;" d="M185.99,200.29L185.99,200.29c11.046,0,20-8.954,20-20l0,0c0-11.046-8.954-20-20-20l0,0
		c-11.046,0-20,8.954-20,20l0,0C165.99,191.337,174.944,200.29,185.99,200.29z"/>
</g>
<path style="fill:#C9F3FF;" d="M129.99,453.998h-40V30.002c0-11.046,8.954-20,20-20l0,0c11.046,0,20,8.954,20,20V453.998z"/>
<g>
	<path style="fill:#FFB954;" d="M161.999,453.998H58c-26.51,0-48,21.49-48,48l0,0h199.998l0,0
		C209.998,475.488,188.508,453.998,161.999,453.998z"/>
	<rect x="301.998" y="389.937" style="fill:#FFB954;" width="199.998" height="71.999"/>
</g>
<rect x="301.998" y="317.938" style="fill:#FFC66C;" width="199.998" height="71.999"/>
<rect x="301.998" y="245.938" style="fill:#FFB954;" width="199.998" height="71.999"/>
<path d="M129.993,351.999c-2.641,0-5.21,1.069-7.07,2.93c-1.87,1.86-2.93,4.44-2.93,7.07s1.06,5.21,2.93,7.069
	c1.86,1.86,4.439,2.931,7.07,2.931c2.63,0,5.199-1.07,7.069-2.931c1.86-1.859,2.931-4.439,2.931-7.069s-1.07-5.21-2.931-7.07
	C135.192,353.068,132.623,351.999,129.993,351.999z"/>
<path d="M161.999,443.999h-22.01v-47c0-5.522-4.478-10-10-10s-10,4.478-10,10v47h-20V30.002c0-5.514,4.486-10,10-10
	c5.514,0,10,4.486,10,10V323c0,5.522,4.478,10,10,10s10-4.478,10-10v-28.635c31.664-4.833,56-32.249,56-65.242V208.57
	c11.639-4.128,20-15.243,20-28.28c0-16.542-13.458-30-30-30s-30,13.458-30,30c0,13.036,8.361,24.152,20,28.28v20.552
	c0,21.93-15.43,40.313-36,44.892V144.076c31.664-4.833,56-32.249,56-65.242V58.282c11.639-4.128,20-15.243,20-28.28
	c0-16.542-13.458-30-30-30s-30,13.458-30,30c0,13.036,8.361,24.152,20,28.28v20.552c0,21.93-15.43,40.313-36,44.892V30.002
	c0-16.542-13.458-30-30-30s-30,13.458-30,30v148.425c-22.531-2.957-39.986-22.269-39.986-45.594v-20.552
	c11.639-4.128,20-15.243,20-28.28c0-16.542-13.458-30-30-30s-30,13.458-30,30c0,13.036,8.361,24.152,20,28.28v20.552
	c0,34.364,26.403,62.665,59.986,65.713v130.169c-22.531-2.957-39.986-22.269-39.986-45.594V262.57c11.639-4.128,20-15.243,20-28.28
	c0-16.542-13.458-30-30-30s-30,13.458-30,30c0,13.036,8.361,24.152,20,28.28v20.552c0,34.364,26.403,62.665,59.986,65.713v95.163H58
	c-31.981,0-58,26.019-58,58c0,5.522,4.478,10,10,10h199.998c5.522,0,10-4.478,10-10
	C219.998,470.017,193.979,443.999,161.999,443.999z M185.989,170.291c5.514,0,10,4.486,10,10c0,5.514-4.486,10-10,10
	s-10-4.486-10-10C175.989,174.777,180.476,170.291,185.989,170.291z M185.989,20.002c5.514,0,10,4.486,10,10s-4.486,10-10,10
	s-10-4.486-10-10S180.476,20.002,185.989,20.002z M30.004,74.001c5.514,0,10,4.486,10,10c0,5.514-4.486,10-10,10s-10-4.486-10-10
	C20.004,78.487,24.49,74.001,30.004,74.001z M30.004,224.29c5.514,0,10,4.486,10,10s-4.486,10-10,10s-10-4.486-10-10
	S24.49,224.29,30.004,224.29z M21.335,491.998c4.4-16.118,19.171-28,36.665-28h103.999c17.494,0,32.265,11.882,36.665,28H21.335z"/>
<path d="M502,0.002H256.002c-5.522,0-10,4.477-10,10v40c0,5.523,4.478,10,10,10h41.361v20c0,3.309-2.691,6-6,6s-6-2.691-6-6
	c0-5.523-4.478-10-10-10s-10,4.477-10,10c0,14.336,11.663,26,26,26s26-11.664,26-26v-20h58.152v20c0,3.309-2.691,6-6,6s-6-2.691-6-6
	c0-5.523-4.478-10-10-10c-5.522,0-10,4.477-10,10c0,14.336,11.663,26,26,26c14.337,0,26-11.664,26-26v-20h58.153v20
	c0,3.309-2.691,6-6,6c-3.309,0-6-2.691-6-6c0-5.523-4.478-10-10-10c-5.522,0-10,4.477-10,10c0,14.336,11.663,26,26,26
	c14.337,0,26-11.664,26-26v-20h28.333c5.522,0,10-4.477,10-10v-40C512,4.479,507.522,0.002,502,0.002z M492,40.002h-18.35
	c-0.178-5.367-4.573-9.667-9.983-9.667c-5.41,0-9.806,4.299-9.983,9.667h-58.187c-0.178-5.367-4.573-9.667-9.983-9.667
	c-5.41,0-9.806,4.299-9.983,9.667h-58.186c-0.177-5.367-4.573-9.667-9.983-9.667c-5.41,0-9.806,4.299-9.983,9.667h-31.378v-20
	h225.998L492,40.002L492,40.002z"/>
<path d="M502,235.937h-99.999c-5.522,0-10,4.477-10,10c0,5.523,4.478,10,10,10H492v52H312.002v-52h22c5.522,0,10-4.477,10-10
	c0-5.523-4.478-10-10-10h-32c-5.522,0-10,4.477-10,10v256.061c0,5.522,4.478,10,10,10c5.522,0,10-4.478,10-10v-30.063H492v30.063
	c0,5.522,4.478,10,10,10c5.522,0,10-4.478,10-10V245.937C512,240.415,507.522,235.937,502,235.937z M492,327.936v52H312.002v-52H492
	z M312.002,451.935v-52H492v52H312.002z"/>
<path d="M376.07,253.01c1.86-1.86,2.931-4.44,2.931-7.07c0-2.63-1.07-5.21-2.931-7.07c-1.859-1.86-4.439-2.93-7.069-2.93
	c-2.641,0-5.21,1.07-7.07,2.93c-1.86,1.86-2.93,4.43-2.93,7.07c0,2.63,1.069,5.21,2.93,7.07c1.861,1.86,4.44,2.93,7.07,2.93
	S374.211,254.87,376.07,253.01z"/>
<path d="M410.834,415.499h-17.666c-5.522,0-10,4.478-10,10c0,5.522,4.478,10,10,10h17.666c5.522,0,10-4.478,10-10
	C420.834,419.977,416.356,415.499,410.834,415.499z"/>
<path d="M393.168,363.499h17.666c5.522,0,10-4.478,10-10c0-5.522-4.478-10-10-10h-17.666c-5.522,0-10,4.478-10,10
	C383.168,359.021,387.645,363.499,393.168,363.499z"/>
<path d="M410.834,291.5c5.522,0,10-4.478,10-10c0-5.522-4.478-10-10-10h-17.666c-5.522,0-10,4.478-10,10c0,5.522,4.478,10,10,10
	H410.834z"/>
<g>
</g>
<g>
</g>
<g>
</g>
<g>
</g>
<g>
</g>
<g>
</g>
<g>
</g>
<g>
</g>
<g>
</g>
<g>
</g>
<g>
</g>
<g>
</g>
<g>
</g>
<g>
</g>
<g>
</g>
</svg>
