<?xml version="1.0" encoding="iso-8859-1"?>
<!-- Generator: Adobe Illustrator 19.0.0, SVG Export Plug-In . SVG Version: 6.00 Build 0)  -->
<svg version="1.1" id="Capa_1" xmlns="http://www.w3.org/2000/svg" xmlns:xlink="http://www.w3.org/1999/xlink" x="0px" y="0px"
	 viewBox="0 0 512 512" style="enable-background:new 0 0 512 512;" xml:space="preserve">
<rect x="10" y="171" style="fill:#ADE5FF;" width="492" height="304"/>
<rect x="174" y="229" style="fill:#C9F3FF;" width="164" height="164"/>
<g>
	<rect x="174" y="171" style="fill:#EDF2FA;" width="164" height="58"/>
	<rect x="174" y="393" style="fill:#EDF2FA;" width="164" height="82"/>
</g>
<rect x="10" y="323" style="fill:#FFC66C;" width="164" height="152"/>
<rect x="10" y="171" style="fill:#FEDA9B;" width="164" height="152"/>
<path style="fill:#C9F3FF;" d="M221,110.5H64l0,0c0,33.413,27.087,60.5,60.5,60.5h36C193.913,171,221,143.913,221,110.5L221,110.5z"
	/>
<path d="M502,298.33c-2.63,0-5.21,1.069-7.07,2.93s-2.93,4.44-2.93,7.07s1.069,5.21,2.93,7.069c1.86,1.87,4.44,2.931,7.07,2.931
	s5.21-1.061,7.069-2.931c1.86-1.859,2.931-4.439,2.931-7.069s-1.07-5.21-2.931-7.07C507.21,299.399,504.63,298.33,502,298.33z"/>
<path d="M109,360.667H78.333c-5.522,0-10,4.478-10,10s4.478,10,10,10H109c5.522,0,10-4.478,10-10S114.522,360.667,109,360.667z"/>
<path d="M78.333,228H109c5.522,0,10-4.478,10-10s-4.478-10-10-10H78.333c-5.522,0-10,4.478-10,10S72.811,228,78.333,228z"/>
<path d="M200.929,328.738c1.953,1.952,4.512,2.929,7.071,2.929s5.118-0.977,7.071-2.929l56.333-56.334
	c3.905-3.905,3.905-10.237,0-14.143c-3.906-3.904-10.236-3.904-14.143,0l-56.333,56.334
	C197.023,318.501,197.023,324.833,200.929,328.738z"/>
<path d="M298.75,314.92c2.63,0,5.21-1.07,7.069-2.93c1.86-1.87,2.931-4.44,2.931-7.07s-1.07-5.21-2.931-7.07
	c-1.859-1.859-4.439-2.93-7.069-2.93c-2.641,0-5.21,1.07-7.07,2.93c-1.86,1.86-2.93,4.44-2.93,7.07s1.069,5.21,2.93,7.07
	C293.54,313.85,296.12,314.92,298.75,314.92z"/>
<path d="M263.069,427.87c-1.859-1.87-4.439-2.931-7.069-2.931s-5.21,1.061-7.07,2.931c-1.86,1.859-2.93,4.439-2.93,7.069
	s1.069,5.21,2.93,7.07s4.44,2.93,7.07,2.93s5.21-1.069,7.069-2.93c1.86-1.86,2.931-4.44,2.931-7.07S264.93,429.729,263.069,427.87z"
	/>
<path d="M369,293.5V332c0,5.522,4.478,10,10,10s10-4.478,10-10v-38.5c0-5.522-4.478-10-10-10S369,287.978,369,293.5z"/>
<path d="M458,27c-29.775,0-54,24.225-54,54c0,5.522,4.478,10,10,10s10-4.478,10-10c0-18.748,15.252-34,34-34s34,15.252,34,34v80
	H209.623C222.795,148.184,231,130.287,231,110.5c0-5.522-4.478-10-10-10H64c-5.522,0-10,4.478-10,10
	c0,19.787,8.205,37.684,21.377,50.5H10c-5.522,0-10,4.478-10,10v304c0,5.522,4.478,10,10,10h492c5.522,0,10-4.478,10-10V347
	c0-5.522-4.478-10-10-10s-10,4.478-10,10v118H348V181h144v89c0,5.522,4.478,10,10,10s10-4.478,10-10v-99V81
	C512,51.225,487.775,27,458,27z M74.994,120.5h135.012c-4.653,23.072-25.083,40.5-49.506,40.5h-36
	C100.077,161,79.647,143.572,74.994,120.5z M160.5,181h3.5v132H20V181H160.5z M328,383h-93.19l45.762-45.762
	c3.905-3.905,3.905-10.237,0-14.143c-3.906-3.904-10.236-3.904-14.143,0L206.524,383H184V239h144V383z M20,333h144v132H20V333z
	 M184,465v-62h144v62H184z M328,219H184v-38h144V219z"/>
<path d="M449.971,105.359c-2.84-4.735-8.978-6.273-13.719-3.438c-4.737,2.84-6.276,8.981-3.438,13.719l2.57,4.289
	c1.875,3.127,5.188,4.861,8.588,4.861c1.749,0,3.521-0.46,5.131-1.424c4.737-2.84,6.276-8.981,3.438-13.719L449.971,105.359z"/>
<path d="M450.806,145.662l2.57,4.289c1.875,3.127,5.188,4.861,8.588,4.861c1.749,0,3.521-0.46,5.131-1.424
	c4.737-2.84,6.276-8.981,3.438-13.719l-2.57-4.289c-2.839-4.735-8.978-6.273-13.719-3.438
	C449.506,134.783,447.967,140.925,450.806,145.662z"/>
<path d="M405.683,150.5c0,5.522,4.478,10,10,10s10-4.478,10-10v-5c0-5.522-4.478-10-10-10s-10,4.478-10,10V150.5z"/>
<path d="M415.683,125.5c5.522,0,10-4.478,10-10v-5c0-5.522-4.478-10-10-10s-10,4.478-10,10v5
	C405.683,121.022,410.16,125.5,415.683,125.5z"/>
<path d="M364.271,153.389c1.61,0.965,3.382,1.424,5.131,1.424c3.399,0,6.713-1.734,8.588-4.861l2.57-4.289
	c2.839-4.737,1.3-10.879-3.438-13.719c-4.74-2.836-10.879-1.298-13.719,3.438l-2.57,4.289
	C357.994,144.407,359.533,150.549,364.271,153.389z"/>
<path d="M382.262,123.367c1.61,0.964,3.382,1.424,5.131,1.424c3.399,0,6.713-1.734,8.588-4.861l2.57-4.289
	c2.839-4.737,1.3-10.879-3.438-13.719c-4.739-2.839-10.879-1.298-13.719,3.438l-2.57,4.289
	C375.985,114.386,377.524,120.527,382.262,123.367z"/>
<path d="M208.58,209.56c1.859,1.86,4.439,2.931,7.069,2.931c2.641,0,5.21-1.07,7.07-2.931c1.87-1.859,2.93-4.439,2.93-7.069
	c0-2.641-1.06-5.21-2.93-7.07c-1.86-1.87-4.43-2.93-7.07-2.93c-2.63,0-5.21,1.06-7.069,2.93c-1.86,1.86-2.931,4.439-2.931,7.07
	C205.649,205.12,206.72,207.7,208.58,209.56z"/>
<path d="M296.34,212.49c2.64,0,5.22-1.07,7.08-2.931c1.86-1.87,2.93-4.439,2.93-7.069c0-2.631-1.069-5.21-2.93-7.08
	c-1.86-1.86-4.44-2.92-7.08-2.92c-2.63,0-5.2,1.06-7.07,2.92c-1.859,1.87-2.92,4.439-2.92,7.08c0,2.63,1.061,5.21,2.92,7.069
	C291.14,211.42,293.71,212.49,296.34,212.49z"/>
<path d="M256,212.49c2.63,0,5.2-1.07,7.069-2.931c1.86-1.859,2.931-4.439,2.931-7.069c0-2.641-1.07-5.21-2.931-7.07
	c-1.859-1.87-4.439-2.93-7.069-2.93s-5.21,1.06-7.07,2.93c-1.86,1.86-2.93,4.43-2.93,7.07c0,2.63,1.069,5.21,2.93,7.069
	C250.79,211.42,253.37,212.49,256,212.49z"/>
<g>
</g>
<g>
</g>
<g>
</g>
<g>
</g>
<g>
</g>
<g>
</g>
<g>
</g>
<g>
</g>
<g>
</g>
<g>
</g>
<g>
</g>
<g>
</g>
<g>
</g>
<g>
</g>
<g>
</g>
</svg>
